<svg width="282" height="401" viewBox="0 0 282 401" fill="none" xmlns="http://www.w3.org/2000/svg">
<g clip-path="url(#clip0)">
<path d="M322.764 522.201C257.431 531.491 187.882 491.76 148.925 422.89C147.128 419.716 145.317 416.157 145.493 412.309C145.957 401.861 158.749 401.454 163.478 393.033C170.31 380.87 156.331 366.223 144.725 361.846C128.792 355.831 111.122 351.481 99.983 335.67C85.7408 315.426 88.0658 284.734 94.5084 259.672C100.951 234.611 110.719 209.688 108.501 183.14C106.754 162.455 100.446 134.464 115.448 126.645C124.563 121.9 134.901 129.987 142.279 138.825C166.076 167.334 181.287 208.157 210.086 227.76C230.502 241.656 254.768 242.569 275.828 254.771C299.379 268.416 316.943 295.076 329.976 323.407C341.277 347.911 349.989 375.139 350.355 403.103C350.721 431.066 341.666 459.864 323.39 474.913" fill="#194429"/>
<path d="M160.435 696.273C195.796 664.473 226.193 625.393 250.219 580.845C263.79 555.655 275.23 528.906 286.128 501.923C293.845 482.843 301.376 463.44 305.419 442.794C309.161 423.731 309.856 404.01 310.088 384.418C310.486 351.281 309.625 318.173 307.503 285.096C304.988 245.799 300.422 205.65 284.924 170.926C279.649 159.097 272.15 147.201 261.243 144.227C245.592 139.95 231.206 155.722 222.226 171.711C209.419 194.545 200.865 220.325 192.769 246.061C165.289 333.448 141.645 425.558 147.953 518.62" fill="#198C36"/>
<path d="M231.957 507.955C238.95 485.789 245.015 463.241 250.15 440.311C255.285 417.38 259.453 394.175 262.655 370.695C265.885 347.304 268.151 323.77 269.454 300.094C270.757 276.417 271.085 252.731 270.436 229.036C269.783 205.294 268.148 181.58 265.531 158.028C265.223 155.098 264.883 152.167 264.512 149.234C264.049 145.519 259.334 146.884 259.784 150.576C262.615 173.868 264.47 197.316 265.342 220.832C266.206 244.312 266.107 267.803 265.045 291.305C263.98 314.852 261.959 338.312 258.982 361.684C256.024 384.867 252.115 407.834 247.255 430.587C242.395 453.339 236.607 475.785 229.891 497.924C229.048 500.705 228.188 503.49 227.311 506.278C226.195 509.77 230.85 511.447 231.957 507.955Z" fill="#153A23"/>
<path d="M270.27 230.25C273.674 217.652 274.137 214.723 279.301 203.061C279.908 201.674 286.93 186.726 285.758 185.863C284.706 185.078 278.63 194.484 278.014 195.888C272.66 207.978 269.149 215.497 265.619 228.557C264.656 232.104 269.302 233.797 270.27 230.25Z" fill="#153A23"/>
<path d="M269.561 302.299C273.132 285.341 274.656 278.908 280.214 262.813C280.714 261.36 288.319 244.485 287.161 244.056C285.804 243.56 281.631 250.65 280.899 251.964C268.329 274.47 268.468 283.642 264.892 300.601C264.137 304.232 268.778 305.941 269.561 302.299Z" fill="#153A23"/>
<path d="M264.897 353.224C270.096 333.244 276.125 313.59 282.96 294.335C284.878 288.933 284.813 288.894 286.865 283.559C287.416 282.133 290.672 271.618 289.468 270.721C288.453 269.97 282.298 281.782 281.742 283.219C274.332 302.538 270.723 314.217 264.948 334.333C263.314 340.036 261.747 345.765 260.247 351.52C259.311 355.112 263.966 356.811 264.897 353.224Z" fill="#153A23"/>
<path d="M257.736 398.04C267.597 383.638 279.635 362.13 286.73 345.545C297.981 319.213 286.045 334.406 282.599 342.481C275.693 358.632 266.416 373.14 256.829 387.147C255.99 388.361 255.763 390.032 256.741 391.268C257.56 392.298 256.24 395.89 257.079 394.665L257.741 398.04H257.736Z" fill="#153A23"/>
<path d="M211.707 420.774C154.78 435.755 92.8457 420.646 45.2186 380.168C25.9834 363.823 8.16556 341.557 4.37689 313.555C3.95078 310.38 3.80256 306.782 5.51164 304.31C6.94744 302.26 9.26326 301.536 11.4262 301.035C62.1704 289.15 112.215 325.712 149.486 368.924C140.957 344.397 136.713 318.022 137.018 291.439C137.11 283.848 139.38 273.991 145.674 273.757C149.569 273.612 152.622 277.555 155.081 281.231C178.798 316.913 197.019 357.405 208.887 400.797" fill="#1F7A36"/>
<path d="M5.17354 305.056C30.2353 297.343 56.9042 302.589 80.4468 314.563C104.893 326.988 126.096 346.692 145.452 368.25C156.637 380.709 167.29 393.869 177.924 406.99C180.268 409.892 184.168 406.316 183.172 402.769C174.784 372.778 166.1 342.894 157.985 312.792C151.658 289.334 148.791 293.968 153.923 314.646C161.435 344.976 168.601 375.351 176.998 405.319L182.255 401.098C163.07 377.378 143.729 353.514 121.427 333.983C99.6217 314.903 74.8147 300.066 47.9374 295.232C32.9726 292.542 17.7438 293.082 3.05688 297.604C1.34781 298.128 0.490961 300.706 1.0236 302.617C1.63497 304.75 3.46447 305.58 5.17354 305.056Z" fill="#163A24"/>
<path d="M217.27 412.42C193.513 412.368 169.852 408.796 146.823 401.783C123.759 394.786 101.488 384.446 80.4977 370.99C68.7519 363.466 63.5691 363.65 50.4848 351.993C49.0953 350.735 35.432 338.07 34.1768 339.791C33.0976 341.262 40.9297 350.183 42.3701 351.442C62.0353 368.708 83.3934 382.996 105.962 393.986C128.611 405.019 152.295 412.687 176.488 416.82C190.138 419.121 203.904 420.279 217.687 420.284C221.855 420.284 221.461 412.42 217.27 412.42Z" fill="#194429"/>
<path d="M69.6736 346.09C87.8574 360.398 101.766 380.926 118.144 397.884C121.335 401.187 132.58 401.499 129.38 398.191C112.535 380.787 96.4352 359.963 77.728 345.244C76.2505 344.08 63.1198 336.222 62.3834 337.97C61.5034 340.009 68.1915 344.926 69.6736 346.09Z" fill="#194429"/>
<path d="M118.222 366.563C131.941 382.424 137.133 395.339 151.315 408.817C154.609 411.941 169.527 412.927 166.215 409.78C152.024 396.308 136.24 377.35 122.836 362.753C110.256 349.053 102.498 347.677 118.222 366.563Z" fill="#194429"/>
<path d="M53.977 255.868C53.6528 250.121 53.7408 239.874 54.2781 234.148C54.3892 233.035 54.8154 231.614 55.7463 231.709C56.5985 231.781 56.8903 233.09 56.9737 234.104C57.5017 240.509 58.0081 246.924 58.4929 253.351C62.9993 250.936 67.9278 249.878 72.8509 250.271C72.9885 250.285 73.1204 250.343 73.2327 250.439C73.3449 250.536 73.4331 250.667 73.4879 250.819C73.5426 250.972 73.5619 251.139 73.5435 251.304C73.5251 251.468 73.4698 251.623 73.3836 251.753C71.3505 254.784 68.5846 256.981 65.4681 258.04C64.3426 258.414 63.055 258.77 62.5039 260.001C62.1426 260.797 62.2306 261.755 62.2954 262.652C62.7423 268.209 62.571 273.813 61.786 279.315C61.7501 279.526 61.6619 279.72 61.533 279.87C61.4041 280.02 61.2405 280.119 61.0637 280.155C60.8868 280.192 60.705 280.163 60.5421 280.072C60.3793 279.982 60.2429 279.834 60.151 279.649C57.9649 275.394 58.215 269.508 56.7097 264.612C56.5821 264.044 56.3081 263.539 55.9269 263.17C55.3757 262.837 54.7454 262.744 54.1438 262.908C49.4394 263.522 44.7033 263.708 39.9756 263.465C38.6973 263.393 36.9512 262.446 37.4838 261.081C37.6789 260.675 37.9755 260.354 38.3314 260.162C40.7611 258.512 43.4359 257.448 46.2052 257.032L53.977 255.868Z" fill="#FBC8B8"/>
<path d="M279.403 84.8923C280.603 77.2791 283.613 63.9686 285.938 56.7286C286.402 55.3307 287.328 53.6488 288.537 54.15C289.621 54.5956 289.644 56.4167 289.463 57.77C288.327 66.3096 287.17 74.8695 285.994 83.4498C292.544 82.1446 299.26 82.7832 305.558 85.31C305.732 85.3849 305.886 85.5152 306.004 85.6869C306.121 85.8587 306.198 86.0656 306.225 86.2855C306.253 86.5054 306.23 86.7302 306.16 86.936C306.09 87.1418 305.975 87.3208 305.827 87.4541C302.326 90.5708 298.107 92.3011 293.752 92.4052C292.177 92.4052 290.403 92.3662 289.333 93.7418C288.643 94.6385 288.486 95.9138 288.314 97.0834C287.325 104.501 285.516 111.727 282.937 118.57C282.831 118.829 282.662 119.044 282.453 119.186C282.243 119.329 282.003 119.392 281.763 119.367C281.523 119.342 281.295 119.231 281.109 119.048C280.923 118.865 280.787 118.619 280.719 118.341C279.074 111.903 281.061 104.34 280.482 97.3952C280.473 96.6026 280.258 95.8334 279.866 95.1954C279.315 94.4602 278.431 94.2653 277.62 94.1205C271.323 92.9985 265.105 91.3081 259.019 89.0636C257.384 88.4455 255.37 86.4962 256.449 84.9368C256.817 84.4882 257.294 84.1901 257.81 84.0847C261.447 82.9259 265.238 82.6327 268.968 83.2215L279.403 84.8923Z" fill="#FBC8B8"/>
<path d="M13.9598 375.05C9.90249 379.667 10.8983 389.43 17.855 387.091C28.1187 383.621 20.9119 367.142 13.9598 375.05Z" fill="#F7BC28"/>
<path d="M175.103 223.522C171.449 223.895 168.508 229.414 172.788 231.642C179.156 234.939 181.361 222.893 175.103 223.522Z" fill="#F7BC28"/>
<path d="M188.707 169.935C184.649 174.557 185.65 184.32 192.602 181.976C202.865 178.506 195.659 162.032 188.707 169.935Z" fill="#F7BC28"/>
</g>
<defs>
<clipPath id="clip0">
<rect width="300" height="400" fill="white" transform="translate(0 0.796875)"/>
</clipPath>
</defs>
</svg>
